        <svg xmlns:xlink="http://www.w3.org/1999/xlink"
          xmlns="http://www.w3.org/2000/svg" class="css-ze2te4 css-qd6ojx "
          viewBox="0 0 99.99999999999999 101.16792050837127" width="50" height="50">
          <g transform="translate(-6.204965233732897, -5.620440028242848) scale(1.1240880056485696)" class="css-1e98oqk"
            fill="#D91895">
            <circle xmlns="http://www.w3.org/2000/svg" cx="42.125" cy="19.337" r="9.916" fill="#D91895"></circle>
            <circle xmlns="http://www.w3.org/2000/svg" cx="27.438" cy="63.042" r="4.958" fill="#D91895"></circle>
            <circle xmlns="http://www.w3.org/2000/svg" cx="62.284" cy="87.752" r="4.958" fill="#D91895"></circle>
            <circle xmlns="http://www.w3.org/2000/svg" cx="46.204" cy="33.938" r="4.462" fill="#D91895"></circle>
            <circle xmlns="http://www.w3.org/2000/svg" cx="64.86" cy="59.99" r="5.356" fill="#D91895"></circle>
            <path xmlns="http://www.w3.org/2000/svg"
              d="M74.019,19.736c2.416,0,4.487-1.398,5.505-3.418c-3.036-2.71-6.439-5.016-10.13-6.832c-0.959,1.089-1.561,2.503-1.561,4.068  C67.833,16.97,70.603,19.736,74.019,19.736z"
              fill="#D91895"></path>
            <circle xmlns="http://www.w3.org/2000/svg" cx="62.615" cy="30.244" r="11.237" fill="#D91895"></circle>
            <path xmlns="http://www.w3.org/2000/svg"
              d="M93.643,59.136c-0.273,1.32-0.608,2.617-0.996,3.893C93.2,61.829,93.546,60.519,93.643,59.136z"
              fill="#D91895"></path>
            <path xmlns="http://www.w3.org/2000/svg"
              d="M82.447,47.098c-6.207,0-11.237,5.031-11.237,11.239c0,6.205,5.03,11.238,11.237,11.238c4.528,0,8.422-2.687,10.199-6.547  c0.388-1.275,0.723-2.572,0.996-3.893c0.019-0.265,0.041-0.528,0.041-0.799C93.684,52.129,88.652,47.098,82.447,47.098z"
              fill="#D91895"></path>
            <path xmlns="http://www.w3.org/2000/svg"
              d="M17.748,33.007c0-3.719-2.476-6.828-5.855-7.863c-2.983,4.52-5.172,9.608-6.373,15.069c1.181,0.652,2.52,1.057,3.965,1.057  C14.047,41.27,17.748,37.571,17.748,33.007z"
              fill="#D91895"></path>
            <circle xmlns="http://www.w3.org/2000/svg" cx="71.619" cy="76.304" r="8.263" fill="#D91895"></circle>
            <path xmlns="http://www.w3.org/2000/svg"
              d="M58.373,17.711c4.198,0,7.6-3.403,7.6-7.602c0-0.8-0.157-1.554-0.386-2.278C61.562,6.293,57.26,5.321,52.776,5  c-1.233,1.353-2.005,3.135-2.005,5.109C50.771,14.308,54.173,17.711,58.373,17.711z"
              fill="#D91895"></path>
            <path xmlns="http://www.w3.org/2000/svg"
              d="M13.703,69.904c4.197,0,7.6-3.403,7.6-7.602c0-4.196-3.403-7.602-7.6-7.602c-4.12,0-7.454,3.283-7.58,7.371  c0.479,1.719,1.053,3.397,1.726,5.027C9.243,68.799,11.333,69.904,13.703,69.904z"
              fill="#D91895"></path>
            <circle xmlns="http://www.w3.org/2000/svg" cx="23.286" cy="52.574" r="4.481" fill="#D91895"></circle>
            <path xmlns="http://www.w3.org/2000/svg"
              d="M39.335,88.411c0-2.474-2.007-4.48-4.48-4.48c-2.476,0-4.482,2.007-4.482,4.48c0,1.048,0.375,2,0.979,2.763  c1.395,0.615,2.826,1.164,4.292,1.638C37.739,92.438,39.335,90.616,39.335,88.411z"
              fill="#D91895"></path>
            <circle xmlns="http://www.w3.org/2000/svg" cx="13.015" cy="47.207" r="5.802" fill="#D91895"></circle>
            <circle xmlns="http://www.w3.org/2000/svg" cx="26.313" cy="30.271" r="7.603" fill="#D91895"></circle>
            <path xmlns="http://www.w3.org/2000/svg"
              d="M62.137,71.661c-0.032-8.119-6.643-14.678-14.762-14.646c-8.122,0.032-14.68,6.64-14.646,14.76  c0.03,8.123,6.64,14.679,14.76,14.647C55.61,86.391,62.169,79.783,62.137,71.661z"
              fill="#D91895"></path>
            <path xmlns="http://www.w3.org/2000/svg"
              d="M81.061,17.76c-3.272,3.114-5.316,7.506-5.298,12.381c0.038,9.399,7.686,16.989,17.085,16.952  c0.55-0.001,1.096-0.036,1.633-0.088C93.744,35.57,88.751,25.299,81.061,17.76z"
              fill="#D91895"></path>
            <path xmlns="http://www.w3.org/2000/svg"
              d="M70.2,42.307c-2.465,0.01-4.453,2.015-4.444,4.48c0.01,2.462,2.015,4.453,4.48,4.445c2.463-0.011,4.451-2.018,4.442-4.483  C74.671,44.286,72.664,42.298,70.2,42.307z"
              fill="#D91895"></path>
            <circle xmlns="http://www.w3.org/2000/svg" cx="23.67" cy="42.116" r="2.643" fill="#D91895"></circle>
            <circle xmlns="http://www.w3.org/2000/svg" cx="37.26" cy="46.034" r="9.454" fill="#D91895"></circle>
            <path xmlns="http://www.w3.org/2000/svg"
              d="M30.479,11.066c-0.002-0.646-0.07-1.278-0.196-1.886c-5.257,2.486-9.955,5.957-13.856,10.178  c1.373,0.766,2.952,1.206,4.635,1.199C26.284,20.536,30.5,16.285,30.479,11.066z"
              fill="#D91895"></path>
            <path xmlns="http://www.w3.org/2000/svg"
              d="M31.842,78.716c-0.022-5.22-4.271-9.435-9.491-9.416c-4.465,0.019-8.185,3.132-9.16,7.292  c3.252,4.425,7.294,8.228,11.917,11.214C29.015,86.632,31.857,83.005,31.842,78.716z"
              fill="#D91895"></path>
            <circle xmlns="http://www.w3.org/2000/svg" cx="55.339" cy="48.772" r="7.603" fill="#D91895"></circle>
            <path xmlns="http://www.w3.org/2000/svg"
              d="M48.537,87.771c-3.811,0.016-6.958,2.778-7.604,6.402C43.715,94.709,46.585,95,49.522,95c2.28,0,4.52-0.173,6.71-0.5  C55.717,90.694,52.482,87.757,48.537,87.771z"
              fill="#D91895"></path>
          </g>
        </svg>